# xmcd
# 
# Track frame offsets:
#	150
#	17639
#	29921
#	47144
#	65376
#	73016
#	87527
#	121432
#	135530
#	160926
#	179520
#	191764
#	208922
#	227052
#	235063
#	248918
#	282802
#	296882
#	321892
#
# Disc length: 4521 seconds
#
# Revision: 1
# Processed by: cddbd v1.5.1PL0 Copyright (c) Steve Scherf et al.
# Submitted via: Audio-CD-Archiv 3.00.487
#
DISCID=2911a713
DTITLE=Marvin Gaye  - What's going on [Deluxe Edition] - Disc 1
DYEAR=1900
DGENRE=blues
TTITLE0=What's going on
TTITLE1=What's happening brother
TTITLE2=Flyin' high
TTITLE3=Save the children
TTITLE4=God is love
TTITLE5=Mercy mercy me
TTITLE6=Right on
TTITLE7=Wholy holy
TTITLE8=Inner City Blues
TTITLE9=What's going on (Alternate Detroit mix)
TTITLE10=What's happening brother  (Alternate Detroit mix)
TTITLE11=Flying high  (Alternate Detroit mix)
TTITLE12=Save the children  (Alternate Detroit mix)
TTITLE13=God is love  (Alternate Detroit mix)
TTITLE14=Mercy mery me  (Alternate Detroit mix)
TTITLE15=Right on  (Alternate Detroit mix)
TTITLE16=Wholy holy  (Alternate Detroit mix)
TTITLE17=Inner City Blues  (Alternate Detroit mix)
TTITLE18=What's going on (rhythm and strings mix)
EXTD=
EXTT0=
EXTT1=
EXTT2=
EXTT3=
EXTT4=
EXTT5=
EXTT6=
EXTT7=
EXTT8=
EXTT9=
EXTT10=
EXTT11=
EXTT12=
EXTT13=
EXTT14=
EXTT15=
EXTT16=
EXTT17=
EXTT18=
PLAYORDER=
